<!DOCTYPE svg PUBLIC "-//W3C//DTD SVG 1.1//EN" "http://www.w3.org/Graphics/SVG/1.1/DTD/svg11.dtd">
<!-- Uploaded to: SVG Repo, www.svgrepo.com, Transformed by: SVG Repo Mixer Tools -->
<svg width="256px" height="256px" viewBox="0 0 24 24" fill="none" xmlns="http://www.w3.org/2000/svg">
<g id="SVGRepo_bgCarrier" stroke-width="0"/>
<g id="SVGRepo_tracerCarrier" stroke-linecap="round" stroke-linejoin="round"/>
<g id="SVGRepo_iconCarrier"> <path fill-rule="evenodd" clip-rule="evenodd" d="M15.9575 3H8.04251H8.04245C7.56651 2.99998 7.14462 2.99996 6.78932 3.0324C6.4039 3.0676 6.02795 3.14535 5.65587 3.33907C5.2838 3.53279 5.00451 3.7962 4.75466 4.09176C4.52432 4.36424 4.28239 4.70989 4.00946 5.09982L4.00946 5.09983L3.98646 5.13269L3.38928 5.9858L3.35846 6.02983C2.97332 6.57997 2.63623 7.06146 2.40507 7.48985C2.15531 7.9527 1.97719 8.44362 1.99402 9.01492C2.01085 9.58621 2.21757 10.0658 2.49415 10.5131C2.75014 10.9272 3.11499 11.388 3.53186 11.9145L8.86406 18.6499L8.86416 18.65C9.21107 19.0883 9.50591 19.4607 9.7686 19.7453C10.0411 20.0406 10.3437 20.3151 10.7291 20.4954C11.5345 20.872 12.4655 20.872 13.2709 20.4954C13.6563 20.3151 13.9589 20.0406 14.2314 19.7453C14.4941 19.4607 14.789 19.0882 15.1359 18.6499L20.4681 11.9145L20.4682 11.9145C20.885 11.388 21.2499 10.9272 21.5058 10.5131C21.7824 10.0658 21.9891 9.58621 22.006 9.01492C22.0228 8.44362 21.8447 7.9527 21.5949 7.48985C21.3638 7.06146 21.0267 6.57997 20.6415 6.02983L19.9905 5.09985C19.7176 4.7099 19.4757 4.36424 19.2453 4.09176C18.9955 3.7962 18.7162 3.53279 18.3441 3.33907C17.972 3.14535 17.5961 3.0676 17.2107 3.0324C16.8554 2.99996 16.4335 2.99998 15.9575 3H15.9575ZM9.83205 8.0547C10.1384 7.59517 10.0142 6.9743 9.5547 6.66795C9.09517 6.3616 8.4743 6.48577 8.16795 6.9453L7.66795 7.6953C7.12573 8.50863 7.18306 9.58172 7.80884 10.3327L9.73178 12.6402C10.0853 13.0645 10.7159 13.1218 11.1402 12.7682C11.5645 12.4147 11.6218 11.7841 11.2682 11.3598L9.34528 9.05229C9.28653 8.98179 9.28115 8.88105 9.33205 8.8047L9.83205 8.0547Z" fill="#94e2d5"/> </g>
</svg>