<!DOCTYPE svg PUBLIC "-//W3C//DTD SVG 1.1//EN" "http://www.w3.org/Graphics/SVG/1.1/DTD/svg11.dtd">
<!-- Uploaded to: SVG Repo, www.svgrepo.com, Transformed by: SVG Repo Mixer Tools -->
<svg height="64px" width="64px" version="1.1" id="_x32_" xmlns="http://www.w3.org/2000/svg" xmlns:xlink="http://www.w3.org/1999/xlink" viewBox="0 0 512 512" xml:space="preserve" fill="#000000">
<g id="SVGRepo_bgCarrier" stroke-width="0"/>
<g id="SVGRepo_tracerCarrier" stroke-linecap="round" stroke-linejoin="round"/>
<g id="SVGRepo_iconCarrier"> <style type="text/css"> .st0{fill:#313244;} </style> <g> <path class="st0" d="M431.684,252.936c-40.578-32.779-150.62-185.32-171.561-247.398C258.899,1.913,257.845,0,255.988,0 c-1.832,0-2.894,1.913-4.11,5.538C230.92,67.616,120.894,220.157,80.308,252.936c-1.053,0.843-1.946,2.44-1.946,3.064 c0,0.624,0.893,2.222,1.946,3.057c40.586,32.778,150.612,185.319,171.57,247.406c1.216,3.624,2.278,5.537,4.11,5.537 c1.857,0,2.911-1.913,4.135-5.537c20.941-62.087,130.983-214.628,171.561-247.406c1.046-0.835,1.954-2.432,1.954-3.057 C433.638,255.376,432.73,253.778,431.684,252.936z"/> </g> </g>
</svg>