<svg width="192" height="214" viewBox="0 0 192 214" fill="none" xmlns="http://www.w3.org/2000/svg">
<path d="M42.667 85.9739C47.6955 85.6667 53.8946 85.6667 61.867 85.6667H130.134C138.106 85.6667 144.305 85.6667 149.334 85.9739M42.667 85.9739C36.3916 86.3568 31.9394 87.2187 28.1393 89.1547C22.1181 92.2224 17.2227 97.1173 14.1548 103.139C10.667 109.985 10.667 118.945 10.667 136.867V151.8C10.667 169.722 10.667 178.682 14.1548 185.528C17.2227 191.549 22.1181 196.444 28.1393 199.512C34.9844 203 43.9453 203 61.867 203H130.134C148.056 203 157.016 203 163.862 199.512C169.883 196.444 174.778 191.549 177.846 185.528C181.334 178.682 181.334 169.722 181.334 151.8V136.867C181.334 118.945 181.334 109.985 177.846 103.139C174.778 97.1173 169.883 92.2224 163.862 89.1547C160.061 87.2187 155.609 86.3568 149.334 85.9739M42.667 85.9739V64.3333C42.667 34.8782 66.5452 11 96.0003 11C125.455 11 149.334 34.8782 149.334 64.3333V85.9739" stroke="#121212" stroke-width="21.3333" stroke-linecap="round" stroke-linejoin="round"/>
</svg>
