<svg width="800" height="800" viewBox="0 0 800 800" fill="none" xmlns="http://www.w3.org/2000/svg">
<path d="M300 700H400M400 700H500M400 700V600M400 600H633.333C670.153 600 700 570.153 700 533.333V233.333C700 196.514 670.153 166.667 633.333 166.667H166.667C129.848 166.667 100 196.514 100 233.333V533.333C100 570.153 129.848 600 166.667 600H400ZM524.48 508.333H575C593.41 508.333 608.333 493.41 608.333 475V425M275.521 258.333H225C206.591 258.333 191.667 273.257 191.667 291.667V341.667" stroke="#121212" stroke-width="66.6667" stroke-linecap="round" stroke-linejoin="round"/>
</svg>
