<!DOCTYPE svg PUBLIC "-//W3C//DTD SVG 1.1//EN" "http://www.w3.org/Graphics/SVG/1.1/DTD/svg11.dtd">
<!-- Uploaded to: SVG Repo, www.svgrepo.com, Transformed by: SVG Repo Mixer Tools -->
<svg width="256px" height="256px" viewBox="0 0 24 24" xmlns="http://www.w3.org/2000/svg" id="sound-mute" class="icon glyph" fill="#000000">
<g id="SVGRepo_bgCarrier" stroke-width="0"/>
<g id="SVGRepo_tracerCarrier" stroke-linecap="round" stroke-linejoin="round"/>
<g id="SVGRepo_iconCarrier">
<path d="M15.38,4.08a1,1,0,0,0-1.09.21L10.59,8H8a2,2,0,0,0-2,2v4a2,2,0,0,0,2,2h2.59l3.7,3.71A1,1,0,0,0,15,20a.84.84,0,0,0,.38-.08A1,1,0,0,0,16,19V5A1,1,0,0,0,15.38,4.08Z" style="fill:#cba6f7"/>
</g>
</svg>