<!DOCTYPE svg PUBLIC "-//W3C//DTD SVG 1.1//EN" "http://www.w3.org/Graphics/SVG/1.1/DTD/svg11.dtd">
<!-- Uploaded to: SVG Repo, www.svgrepo.com, Transformed by: SVG Repo Mixer Tools -->
<svg width="256px" height="256px" viewBox="0 0 24 24" fill="none" xmlns="http://www.w3.org/2000/svg">
<g id="SVGRepo_bgCarrier" stroke-width="0"/>
<g id="SVGRepo_tracerCarrier" stroke-linecap="round" stroke-linejoin="round"/>
<g id="SVGRepo_iconCarrier"> <path d="M1.33309 8.07433C0.92156 8.44266 0.886539 9.07485 1.25487 9.48638C1.62319 9.89791 2.25539 9.93293 2.66691 9.5646L1.33309 8.07433ZM21.3331 9.5646C21.7446 9.93293 22.3768 9.89791 22.7451 9.48638C23.1135 9.07485 23.0784 8.44266 22.6669 8.07433L21.3331 9.5646ZM12 19C11.4477 19 11 19.4477 11 20C11 20.5523 11.4477 21 12 21V19ZM12.01 21C12.5623 21 13.01 20.5523 13.01 20C13.01 19.4477 12.5623 19 12.01 19V21ZM14.6905 17.04C15.099 17.4116 15.7315 17.3817 16.1031 16.9732C16.4748 16.5646 16.4448 15.9322 16.0363 15.5605L14.6905 17.04ZM18.0539 13.3403C18.4624 13.7119 19.0949 13.682 19.4665 13.2734C19.8381 12.8649 19.8082 12.2324 19.3997 11.8608L18.0539 13.3403ZM7.96372 15.5605C7.55517 15.9322 7.52524 16.5646 7.89687 16.9732C8.2685 17.3817 8.90095 17.4116 9.3095 17.04L7.96372 15.5605ZM4.60034 11.8608C4.19179 12.2324 4.16185 12.8649 4.53348 13.2734C4.90511 13.682 5.53756 13.7119 5.94611 13.3403L4.60034 11.8608ZM2.66691 9.5646C5.14444 7.34716 8.41371 6 12 6V4C7.90275 4 4.16312 5.54138 1.33309 8.07433L2.66691 9.5646ZM12 6C15.5863 6 18.8556 7.34716 21.3331 9.5646L22.6669 8.07433C19.8369 5.54138 16.0972 4 12 4V6ZM12 21H12.01V19H12V21ZM12 16C13.0367 16 13.9793 16.3931 14.6905 17.04L16.0363 15.5605C14.9713 14.5918 13.5536 14 12 14V16ZM12 11C14.3319 11 16.4546 11.8855 18.0539 13.3403L19.3997 11.8608C17.4466 10.0842 14.8487 9 12 9V11ZM9.3095 17.04C10.0207 16.3931 10.9633 16 12 16V14C10.4464 14 9.02872 14.5918 7.96372 15.5605L9.3095 17.04ZM5.94611 13.3403C7.54544 11.8855 9.66815 11 12 11V9C9.15127 9 6.55344 10.0842 4.60034 11.8608L5.94611 13.3403Z" fill="#f5f5f5"/> </g>
</svg>