<!DOCTYPE svg PUBLIC "-//W3C//DTD SVG 1.1//EN" "http://www.w3.org/Graphics/SVG/1.1/DTD/svg11.dtd">
<!-- Uploaded to: SVG Repo, www.svgrepo.com, Transformed by: SVG Repo Mixer Tools -->
<svg width="256px" height="256px" viewBox="0 0 24 24" fill="none" xmlns="http://www.w3.org/2000/svg">
<g id="SVGRepo_bgCarrier" stroke-width="0"/>
<g id="SVGRepo_tracerCarrier" stroke-linecap="round" stroke-linejoin="round"/>
<g id="SVGRepo_iconCarrier"> <path d="M12.0002 19C11.4479 19 11.0002 19.4477 11.0002 20C11.0002 20.5523 11.4479 21 12.0002 21V19ZM12.0102 21C12.5625 21 13.0102 20.5523 13.0102 20C13.0102 19.4477 12.5625 19 12.0102 19V21ZM14.6907 17.04C15.0993 17.4116 15.7317 17.3817 16.1033 16.9732C16.475 16.5646 16.445 15.9322 16.0365 15.5605L14.6907 17.04ZM18.0541 13.3403C18.4626 13.7119 19.0951 13.682 19.4667 13.2734C19.8384 12.8649 19.8084 12.2324 19.3999 11.8608L18.0541 13.3403ZM7.96394 15.5605C7.55539 15.9322 7.52546 16.5646 7.89708 16.9732C8.26871 17.3817 8.90117 17.4116 9.30971 17.04L7.96394 15.5605ZM4.60055 11.8608C4.192 12.2324 4.16207 12.8649 4.53369 13.2734C4.90532 13.682 5.53778 13.7119 5.94633 13.3403L4.60055 11.8608ZM12.0002 21H12.0102V19H12.0002V21ZM12.0002 16C13.0369 16 13.9795 16.3931 14.6907 17.04L16.0365 15.5605C14.9715 14.5918 13.5538 14 12.0002 14V16ZM12.0002 11C14.3321 11 16.4548 11.8855 18.0541 13.3403L19.3999 11.8608C17.4468 10.0842 14.8489 9 12.0002 9V11ZM9.30971 17.04C10.0209 16.3931 10.9635 16 12.0002 16V14C10.4466 14 9.02893 14.5918 7.96394 15.5605L9.30971 17.04ZM5.94633 13.3403C7.54565 11.8855 9.66836 11 12.0002 11V9C9.15148 9 6.55365 10.0842 4.60055 11.8608L5.94633 13.3403Z" fill="#f5f5f5"/> </g>
</svg>