<!DOCTYPE svg PUBLIC "-//W3C//DTD SVG 1.1//EN" "http://www.w3.org/Graphics/SVG/1.1/DTD/svg11.dtd">
<!-- Uploaded to: SVG Repo, www.svgrepo.com, Transformed by: SVG Repo Mixer Tools -->
<svg width="238px" height="238px" viewBox="0 -5.28 136.41 136.41" xmlns="http://www.w3.org/2000/svg" fill="#1e1e2e" stroke="#1e1e2e">
<g id="SVGRepo_bgCarrier" stroke-width="0"/>
<g id="SVGRepo_tracerCarrier" stroke-linecap="round" stroke-linejoin="round"/>
<g id="SVGRepo_iconCarrier"> <defs> <style>.cls-1{fill:#313244;}</style> </defs> <g id="Layer_2" data-name="Layer 2"> <g id="Layer_1-2" data-name="Layer 1"> <path d="M106.22,125c-6.67,2.08-11.62.16-16.16-3.22C69.85,106.69,48.71,93,27.62,79.2,19,73.57,10.61,67.61,2.09,61.84a4.26,4.26,0,0,1-2-4.4A41.66,41.66,0,0,1,2.31,49.2c3.56-8.72,7.28-17.38,11-26,1.65-3.76,4.91-5.31,8.83-5.91,4.24-.64,8.44-1.55,12.67-2.22,9.09-1.44,17.69-4.6,26.43-7.28C70.89,4.84,80.57,2.3,90.68,1.9a10.59,10.59,0,0,0,4.17-.82c4.17-2.06,8-1,11.25,1.55,9.32,7.13,18.45,14.5,27.66,21.77,2.58,2,3.14,4.66,2.28,7.69-3.49,12.38-6.78,24.82-10.57,37.11C122,80.36,118,91.34,114.27,102.43c-2.09,6.23-4,12.51-6,18.74A26.31,26.31,0,0,1,106.22,125ZM17.69,60.31l67.09,44.57c.19-1.06.53-1.72.33-2Q71.25,79.67,57.27,56.57a43.41,43.41,0,0,0-3.88-4.73C41.88,53.88,30.31,54.82,17.69,60.31Zm47.19-9.77a32.46,32.46,0,0,0,1.83,4c7.74,11.95,16.07,23.54,22.42,36.36.42.86,1.17,2.07,3.19.95-.32-7.32-.52-14.95-1-22.55-.51-7.84.93-15.8-1.15-24.17C81.68,47.75,72.79,45.92,64.88,50.54ZM103.39,98.2c.58-.31,1.34-.45,1.48-.83,6.71-17.88,11.82-36.28,17.22-54.58.21-.72-.1-1.59-.2-2.94a47.42,47.42,0,0,0-20,4.9C100.53,62.68,101.89,80.41,103.39,98.2ZM22.8,29c-3.25,7.07-6.48,13.2-8.21,20.2,6.22-.35,23.18-4.37,29.6-7A176.93,176.93,0,0,0,22.8,29Zm65.72,6.84c-4.69-7.56-11.09-11.79-16.36-17.05-.78.57-1.43.81-1.65,1.25-2.82,5.54-5.64,11.08-8.28,16.71-.36.77.25,2,.46,3.38C71.4,39.53,79.39,37.84,88.52,35.88Zm14-3.13c8.65-.57,14.29-2.13,18.5-5-6.18-6.51-11-10.11-16.19-11.79C102.91,21.19,100.82,26.33,102.57,32.75ZM58.16,20.68c-8.31,1.52-15.72,2.78-23.87,5.43,6,4.37,11.24,8,17.82,10.64Zm37.36-8.76c-5.44.8-10-.61-14.49,2.82,2,2.17,3.47,4.23,5.37,5.77s3,4.38,6.36,3.38Z"/> <path class="cls-1" d="M17.69,60.31c12.62-5.49,24.19-6.43,35.7-8.47a43.41,43.41,0,0,1,3.88,4.73q14,23.07,27.84,46.26c.2.33-.14,1-.33,2Z"/> <path class="cls-1" d="M64.88,50.54c7.91-4.62,16.8-2.79,25.28-5.38,2.08,8.37.64,16.33,1.15,24.17.49,7.6.69,15.23,1,22.55-2,1.12-2.77-.09-3.19-.95C82.78,78.11,74.45,66.52,66.71,54.57A32.46,32.46,0,0,1,64.88,50.54Z"/> <path class="cls-1" d="M103.39,98.2c-1.5-17.79-2.86-35.52-1.48-53.45a47.42,47.42,0,0,1,20-4.9c.1,1.35.41,2.22.2,2.94-5.4,18.3-10.51,36.7-17.22,54.58C104.73,97.75,104,97.89,103.39,98.2Z"/> <path class="cls-1" d="M22.8,29A176.93,176.93,0,0,1,44.19,42.23c-6.42,2.64-23.38,6.66-29.6,7C16.32,42.24,19.55,36.11,22.8,29Z"/> <path class="cls-1" d="M88.52,35.88c-9.13,2-17.12,3.65-25.83,4.29-.21-1.37-.82-2.61-.46-3.38,2.64-5.63,5.46-11.17,8.28-16.71.22-.44.87-.68,1.65-1.25C77.43,24.09,83.83,28.32,88.52,35.88Z"/> <path class="cls-1" d="M102.57,32.75c-1.75-6.42.34-11.56,2.31-16.79,5.14,1.68,10,5.28,16.19,11.79C116.86,30.62,111.22,32.18,102.57,32.75Z"/> <path class="cls-1" d="M58.16,20.68l-6,16.07c-6.58-2.61-11.79-6.27-17.82-10.64C42.44,23.46,49.85,22.2,58.16,20.68Z"/> <path class="cls-1" d="M95.52,11.92l-2.76,12c-3.37,1-4.55-1.93-6.36-3.38S83,16.91,81,14.74C85.54,11.31,90.08,12.72,95.52,11.92Z"/> </g> </g> </g>
</svg>