<?xml version="1.0" encoding="UTF-8" standalone="no"?>
<!-- Uploaded to: SVG Repo, www.svgrepo.com, Transformed by: SVG Repo Mixer Tools -->

<svg
   width="256px"
   height="256px"
   viewBox="0 0 24 24"
   fill="none"
   version="1.1"
   id="svg1"
   sodipodi:docname="battery-20.svg"
   inkscape:version="1.3 (0e150ed6c4, 2023-07-21)"
   xmlns:inkscape="http://www.inkscape.org/namespaces/inkscape"
   xmlns:sodipodi="http://sodipodi.sourceforge.net/DTD/sodipodi-0.dtd"
   xmlns="http://www.w3.org/2000/svg"
   xmlns:svg="http://www.w3.org/2000/svg">
  <defs
     id="defs1" />
  <sodipodi:namedview
     id="namedview1"
     pagecolor="#ffffff"
     bordercolor="#000000"
     borderopacity="0.25"
     inkscape:showpageshadow="2"
     inkscape:pageopacity="0.0"
     inkscape:pagecheckerboard="0"
     inkscape:deskcolor="#d1d1d1"
     inkscape:zoom="3.4960938"
     inkscape:cx="128"
     inkscape:cy="128"
     inkscape:window-width="1892"
     inkscape:window-height="1006"
     inkscape:window-x="0"
     inkscape:window-y="0"
     inkscape:window-maximized="1"
     inkscape:current-layer="svg1" />
  <g
     id="SVGRepo_bgCarrier"
     stroke-width="0" />
  <g
     id="SVGRepo_tracerCarrier"
     stroke-linecap="round"
     stroke-linejoin="round" />
  <g
     id="SVGRepo_iconCarrier">
    <path
       d="M7.5 6H6.2C5.0799 6 4.51984 6 4.09202 6.21799C3.71569 6.40973 3.40973 6.71569 3.21799 7.09202C3 7.51984 3 8.0799 3 9.2V14.8C3 15.9201 3 16.4802 3.21799 16.908C3.40973 17.2843 3.71569 17.5903 4.09202 17.782C4.51984 18 5.0799 18 6.2 18H7.5M15.5 6H16.8C17.9201 6 18.4802 6 18.908 6.21799C19.2843 6.40973 19.5903 6.71569 19.782 7.09202C20 7.51984 20 8.0799 20 9.2V14.8C20 15.9201 20 16.4802 19.782 16.908C19.5903 17.2843 19.2843 17.5903 18.908 17.782C18.4802 18 17.9201 18 16.8 18H15.5M11.5 6V15M11.5 18H11.51M21 13V11"
       stroke="#f5f5f5"
       stroke-width="2"
       stroke-linecap="round"
       stroke-linejoin="round"
       id="path1" />
  </g>
  <path
     style="fill:#ffdd55;stroke-width:0.286034"
     d="M 53.345251,202.3492 C 45.629205,201.94184 40.838217,200.54262 35.856041,197.24142 29.975886,193.34521 25.461066,187.5933 23.344358,181.30146 21.555139,175.98306 21.335693,170.15991 21.335693,128 c 0,-42.159908 0.219446,-47.983065 2.008665,-53.30146 2.116708,-6.291841 6.631528,-12.043748 12.511683,-15.939955 6.945406,-4.602046 11.914406,-5.39234 33.993568,-5.406506 6.81542,-0.0044 11.185572,0.108789 12.156424,0.314782 3.34469,0.70967 6.08399,2.84869 7.56742,5.909124 0.69217,1.428002 0.793898,1.979486 0.802868,4.352507 0.0089,2.357478 -0.0905,2.93228 -0.750695,4.3406 -1.064995,2.271835 -2.82306,4.067892 -5.060668,5.170033 l -1.88729,0.92959 -15.02375,0.183274 c -8.4816,0.103467 -15.743199,0.315438 -16.675929,0.486782 -3.051695,0.5606 -5.693783,2.492409 -7.053187,5.157061 -1.29575,2.539881 -1.305808,2.908072 -1.305808,47.804168 0,44.8961 0.01006,45.26429 1.305808,47.80417 1.359404,2.66465 4.001492,4.59646 7.053187,5.15706 0.93273,0.17134 8.194329,0.38331 16.675929,0.48678 l 15.02375,0.18327 1.88729,0.92959 c 2.237608,1.10215 3.995673,2.8982 5.060668,5.17004 0.660197,1.40832 0.759605,1.98312 0.750695,4.3406 -0.009,2.37302 -0.110698,2.9245 -0.802868,4.3525 -1.48343,3.06044 -4.22273,5.19946 -7.56742,5.90913 -1.720271,0.365 -21.837687,0.37628 -28.660782,0.0161 z"
     id="path2"
     transform="scale(0.09375)" />
  <path
     style="fill:#ffdd55;stroke-width:0.286034"
     d="m 120.10076,170.23276 c -3.14286,-0.80049 -6.09116,-3.38783 -7.31667,-6.4209 l -0.65895,-1.63085 -0.0799,-48.91174 c -0.0509,-31.152176 0.0226,-49.576542 0.20231,-50.742697 0.38084,-2.470984 1.54721,-4.660143 3.37093,-6.32692 2.04799,-1.871752 4.11881,-2.645854 7.13366,-2.666676 2.13236,-0.01473 2.51678,0.0752 4.48958,1.050207 2.44054,1.206181 3.85812,2.635611 5.01291,5.054805 l 0.75095,1.573184 0.0747,50.186327 c 0.0824,55.36893 0.19854,51.67959 -1.71686,54.52958 -1.11139,1.65366 -3.30106,3.37204 -5.07959,3.9863 -1.80143,0.62217 -4.45591,0.75929 -6.18304,0.31938 z"
     id="path3"
     transform="scale(0.09375)" />
  <path
     style="fill:#ffdd55;stroke-width:0.286034"
     d="m 120.64027,202.36759 c -4.36272,-0.91276 -7.67138,-4.37728 -8.37948,-8.7742 -0.72627,-4.50971 1.7094,-9.07621 5.95207,-11.15918 1.46076,-0.71717 1.9403,-0.80281 4.49552,-0.80287 2.58156,-5e-5 3.02608,0.0813 4.56096,0.83494 6.7921,3.33487 8.11698,12.2269 2.57627,17.2908 -2.41512,2.20729 -6.11612,3.25684 -9.20534,2.61051 z"
     id="path4"
     transform="scale(0.09375)" />
  <path
     style="fill:#d79921;stroke-width:0.286034;fill-opacity:1"
     d="m 163.2198,202.36555 c -3.14487,-0.66595 -5.82228,-2.75508 -7.24951,-5.65665 -0.87364,-1.77611 -0.93999,-2.11387 -0.93824,-4.77601 0.002,-2.3391 0.11669,-3.11407 0.62759,-4.22361 0.87319,-1.89636 3.28439,-4.3473 5.20224,-5.28799 l 1.60516,-0.78732 15.15978,-0.18286 c 18.52054,-0.2234 19.02487,-0.29768 21.96208,-3.23489 1.67877,-1.67877 2.43268,-3.28391 2.77264,-5.90324 0.36972,-2.84862 0.36972,-85.777343 0,-88.625959 -0.33996,-2.619327 -1.09387,-4.224466 -2.77264,-5.903242 -2.94186,-2.941851 -3.44717,-3.01631 -21.96208,-3.23617 l -15.15978,-0.180018 -1.60516,-0.7881 c -1.91791,-0.941652 -4.32947,-3.393324 -5.20224,-5.288771 -0.5109,-1.109543 -0.62606,-1.884513 -0.62759,-4.22361 -0.002,-2.662142 0.0646,-2.999898 0.93824,-4.776005 1.02374,-2.081267 2.74681,-3.817202 4.7528,-4.788287 2.3604,-1.142652 3.90911,-1.231376 18.61993,-1.066714 14.33065,0.160406 17.61176,0.382561 21.90342,1.483022 2.30679,0.591502 6.50772,2.559455 8.82993,4.136442 5.6905,3.864341 10.7201,10.793406 12.28956,16.930773 1.08836,4.256066 1.23557,6.246914 1.37399,18.582093 l 0.1368,12.190776 1.57885,0.16295 c 4.47104,0.46146 8.17208,4.16817 8.95894,8.97268 0.35465,2.16547 0.35465,22.04485 0,24.21032 -0.78896,4.81735 -4.48737,8.51117 -8.98668,8.97554 l -1.6066,0.16582 -9.8e-4,10.18567 c -10e-4,10.74416 -0.26459,15.17862 -1.14381,19.245 -1.86515,8.62633 -8.35794,16.60166 -16.73231,20.55293 -6.0221,2.84139 -8.54333,3.14823 -27.03016,3.28957 -8.23552,0.063 -14.98179,-0.003 -15.69417,-0.15414 z"
     id="path5"
     transform="scale(0.09375)" />
  <path
     style="fill:#d79921;fill-opacity:1;stroke-width:0.286034"
     d="m 119.36558,169.79912 c -3.00185,-1.21203 -5.01133,-3.08483 -6.35503,-5.92277 l -0.75018,-1.58441 0.0754,-50.39736 0.0754,-50.397373 0.76097,-1.623282 c 1.74923,-3.731443 4.99212,-5.911527 9.16099,-6.158617 2.33877,-0.13862 2.41571,-0.121632 4.72486,1.043216 2.61056,1.316896 3.95892,2.658845 5.10435,5.080075 l 0.71391,1.509083 -0.0784,50.845708 -0.0784,50.84572 -0.62553,1.35424 c -0.84954,1.83918 -3.1817,4.09913 -5.17071,5.01061 -2.20049,1.00839 -5.59888,1.18608 -7.55773,0.39516 z"
     id="path6"
     transform="scale(0.09375)" />
  <path
     style="fill:#d79921;fill-opacity:1;stroke-width:0.286034"
     d="m 119.1022,201.71259 c -2.91883,-1.23209 -4.6718,-2.89203 -5.93875,-5.62356 -0.60477,-1.30387 -0.73721,-2.01902 -0.74401,-4.01752 -0.007,-2.13639 0.0991,-2.6568 0.87688,-4.2905 1.10408,-2.31909 2.89415,-4.13352 5.12156,-5.19127 1.49395,-0.70945 2.04956,-0.81465 4.2905,-0.81242 2.12865,0.002 2.83507,0.12397 4.08065,0.70386 2.11942,0.98672 3.29489,1.95439 4.45893,3.67068 4.64096,6.84276 0.0712,15.77839 -8.25355,16.13873 -1.9091,0.0826 -2.55404,-0.0131 -3.89221,-0.578 z"
     id="path7"
     transform="scale(0.09375)" />
  <path
     style="fill:#d79921;fill-opacity:1;stroke-width:0.286034"
     d="M 52.630168,202.18208 C 45.291611,201.6018 40.439948,200.096 35.782225,196.953 29.649242,192.8145 24.677571,186.08901 23.05193,179.73192 21.788378,174.79079 21.738547,172.82805 21.738547,128 c 0,-44.828046 0.04983,-46.790788 1.313383,-51.731922 2.016709,-7.886364 8.88344,-15.848289 16.948179,-19.65129 5.201498,-2.452814 10.357411,-2.992342 28.647936,-2.997795 10.754657,-0.0032 12.810308,0.06334 14.131031,0.457433 3.01344,0.899191 5.306846,2.884457 6.674109,5.777383 0.781335,1.653188 0.837989,1.98977 0.746298,4.43352 -0.07648,2.038219 -0.249807,2.95026 -0.756029,3.978103 -1.022307,2.07571 -2.699344,3.772334 -4.836243,4.892722 l -1.943524,1.019001 -12.442458,0.191208 c -17.220456,0.264635 -19.868509,0.433095 -21.820574,1.388151 -1.996075,0.976589 -3.811155,2.79639 -4.707917,4.720164 -0.631514,1.354752 -0.741149,2.09722 -0.950322,6.435754 -0.307776,6.38369 -0.307776,75.791448 0,82.175138 0.209173,4.33853 0.318808,5.081 0.950322,6.43575 0.896762,1.92378 2.711842,3.74358 4.707917,4.72016 1.952065,0.95506 4.600118,1.12352 21.820574,1.38816 l 12.442458,0.1912 1.943524,1.01901 c 2.136899,1.12038 3.813936,2.81701 4.836243,4.89272 0.506222,1.02784 0.679553,1.93988 0.756029,3.9781 0.09169,2.44375 0.03504,2.78033 -0.746298,4.43352 -1.364623,2.88734 -3.664725,4.88149 -6.654516,5.76936 -1.310837,0.38928 -3.464286,0.44639 -15.275165,0.40508 -7.562063,-0.0264 -14.264063,-0.0888 -14.893336,-0.13855 z"
     id="path8"
     transform="scale(0.09375)" />
</svg>
