<?xml version="1.0" encoding="UTF-8" standalone="no"?>
<!-- Uploaded to: SVG Repo, www.svgrepo.com, Transformed by: SVG Repo Mixer Tools -->

<svg
   width="256px"
   height="256px"
   viewBox="0 0 24 24"
   fill="none"
   version="1.1"
   id="svg1"
   sodipodi:docname="clock.svg"
   inkscape:version="1.3 (0e150ed6c4, 2023-07-21)"
   xmlns:inkscape="http://www.inkscape.org/namespaces/inkscape"
   xmlns:sodipodi="http://sodipodi.sourceforge.net/DTD/sodipodi-0.dtd"
   xmlns="http://www.w3.org/2000/svg"
   xmlns:svg="http://www.w3.org/2000/svg">
  <defs
     id="defs1" />
  <sodipodi:namedview
     id="namedview1"
     pagecolor="#ffffff"
     bordercolor="#000000"
     borderopacity="0.25"
     inkscape:showpageshadow="2"
     inkscape:pageopacity="0.0"
     inkscape:pagecheckerboard="0"
     inkscape:deskcolor="#d1d1d1"
     inkscape:zoom="3.4960938"
     inkscape:cx="128"
     inkscape:cy="128"
     inkscape:window-width="1892"
     inkscape:window-height="1006"
     inkscape:window-x="0"
     inkscape:window-y="0"
     inkscape:window-maximized="1"
     inkscape:current-layer="svg1" />
  <g
     id="SVGRepo_bgCarrier"
     stroke-width="0" />
  <g
     id="SVGRepo_tracerCarrier"
     stroke-linecap="round"
     stroke-linejoin="round" />
  <g
     id="SVGRepo_iconCarrier">
    <path
       d="M12 7V12L14.5 10.5M21 12C21 16.9706 16.9706 21 12 21C7.02944 21 3 16.9706 3 12C3 7.02944 7.02944 3 12 3C16.9706 3 21 7.02944 21 12Z"
       stroke="#f5f5f5"
       stroke-width="2"
       stroke-linecap="round"
       stroke-linejoin="round"
       id="path1" />
  </g>
  <path
     style="fill:#d79921;stroke-width:0.286034"
     d="m 122.13631,234.39445 c -43.369186,-2.40246 -81.04206,-30.97559 -95.022838,-72.07043 -2.34977,-6.90687 -4.24833,-15.51094 -5.143924,-23.31173 -0.476305,-4.1487 -0.479398,-17.94766 -0.0049,-22.02458 C 23.523549,103.59246 27.01215,91.718773 32.7637,80.232402 47.81806,50.167473 76.273418,28.96502 109.5242,23.037168 c 11.38954,-2.030494 25.56214,-2.030494 36.95168,0 38.77787,6.913206 70.58088,34.48707 82.7611,71.75559 13.85972,42.407382 -0.0588,88.865042 -34.94732,116.648572 -20.19712,16.08398 -46.29346,24.38564 -72.15331,22.95312 z m 11.30321,-21.17359 c 11.7717,-0.78063 22.18622,-3.60679 32.74595,-8.88619 8.73962,-4.36942 15.08544,-8.97423 22.18105,-16.09556 4.75352,-4.77075 7.0658,-7.54524 10.39386,-12.47151 7.52831,-11.14361 11.86966,-22.49964 13.94993,-36.49 0.64171,-4.31566 0.72944,-17.39552 0.14471,-21.57481 -2.26633,-16.19827 -7.7379,-29.417752 -17.46214,-42.189068 C 192.69816,71.97462 184.99848,64.174618 181.30708,61.244399 172.29005,54.086713 160.8602,48.314415 150.09781,45.483111 134.47026,41.371912 118.28302,41.670589 102.82969,46.355273 93.306173,49.242331 83.080226,54.639625 74.879065,61.107718 71.043249,64.132951 63.360581,71.885492 60.603767,75.512849 50.865332,88.32647 45.41092,101.50731 43.144985,117.70279 c -0.584731,4.17929 -0.497001,17.25915 0.144708,21.57481 2.382114,16.02038 7.865752,28.95361 17.654611,41.6386 2.730916,3.53889 10.200579,11.03061 13.934761,13.9759 11.681363,9.21356 25.201715,15.1418 39.869495,17.48148 6.55886,1.04622 11.98309,1.2921 18.69096,0.84728 z"
     id="path2"
     transform="scale(0.09375)" />
  <path
     style="fill:#d79921;stroke-width:0.286034"
     d="m 125.26247,138.21052 c -2.87058,-0.81437 -5.34023,-2.87455 -6.75379,-5.63398 l -0.80589,-1.57319 V 101.39888 71.794413 l 0.76376,-1.629389 c 0.9743,-2.078542 2.96518,-4.069422 5.04373,-5.04372 1.42534,-0.668117 1.98758,-0.763762 4.48972,-0.763762 2.50214,0 3.06438,0.09565 4.48972,0.763762 2.07855,0.974298 4.06943,2.965178 5.04373,5.04372 l 0.76376,1.629389 0.0776,18.691963 c 0.0725,17.461194 0.10961,18.679664 0.56415,18.505244 0.26761,-0.10269 2.93572,-1.65647 5.92913,-3.45284 6.11496,-3.66964 7.91149,-4.33704 10.84823,-4.03009 8.70334,0.90968 12.5987,11.70901 6.44364,17.86408 -1.19818,1.19817 -27.38273,17.15533 -30.18403,18.39448 -1.64154,0.72613 -4.94705,0.94438 -6.71343,0.44327 z"
     id="path3"
     transform="scale(0.09375)" />
</svg>
