<!DOCTYPE svg PUBLIC "-//W3C//DTD SVG 1.1//EN" "http://www.w3.org/Graphics/SVG/1.1/DTD/svg11.dtd">
<!-- Uploaded to: SVG Repo, www.svgrepo.com, Transformed by: SVG Repo Mixer Tools -->
<svg width="800px" height="800px" viewBox="0 0 24 24" fill="none" xmlns="http://www.w3.org/2000/svg">
<g id="SVGRepo_bgCarrier" stroke-width="0"/>
<g id="SVGRepo_tracerCarrier" stroke-linecap="round" stroke-linejoin="round"/>
<g id="SVGRepo_iconCarrier"> <path d="M9 21H12M15 21H12M12 21V18M12 18H19C20.1046 18 21 17.1046 21 16V7C21 5.89543 20.1046 5 19 5H5C3.89543 5 3 5.89543 3 7V16C3 17.1046 3.89543 18 5 18H12ZM15.7344 15.25H17.25C17.8023 15.25 18.25 14.8023 18.25 14.25V12.75M8.26562 7.75H6.75C6.19772 7.75 5.75 8.19772 5.75 8.75V10.25" stroke="#ffffff" stroke-width="2" stroke-linecap="round" stroke-linejoin="round"/> </g>
</svg>